<svg version="1.2" xmlns="http://www.w3.org/2000/svg" viewBox="0 0 800 800" width="5000" height="5000">
	<title>195-ai</title>
	<style>
		tspan { white-space:pre } 
		.s0 { fill: #85181f } 
		.s1 { fill: #f5a108 } 
		.s2 { fill: #e74917 } 
		.s3 { fill: #b6191d } 
		.s4 { fill: #e1121a } 
		.s5 { fill: #eb661d } 
	</style>
	<g id="Layer 2">
		<g id="&lt;Group&gt;">
			<g id="&lt;Group&gt;">
				<path id="&lt;Path&gt;" class="s0" d="m296.6 794c-29.5 0-64.3-15.5-73.4-59.1c-5.7-27.1 38.5-184.4-65.3-239.6c189.9 52.4 287.6 301.4 138.7 298.7z" />
				<path id="&lt;Path&gt;" class="s1" d="m413 383.2c148.5 63 217.9-20 180.7-146c32.6 29.3 52.4 72.6 56.1 122.7c2.9 35.4-3.1 69-18.6 99.4c-54.8 29.3-166.9 40.8-218.2-76.1z" />
				<path id="&lt;Path&gt;" class="s2" d="m778.9 326.4c-8.1-14.6-18-29.6-29.5-44.3c-0.1-0.6-0.2-1-0.3-1.6c-89.4-113.2-222.1-169-338.3-73.2c0.1 0 0.1 0 0.2 0c-28.5 23.6-56.5 58.4-82.9 103.6c8.5-80.2 33.9-175.4 101.1-242.1c119.3-64.5 358.4 24.2 349.7 257.6z" />
				<path id="&lt;Path&gt;" class="s3" d="m225.8 524.1c-24.4-193.4-127-322.1-145.4-340.7c240.3 52.9 284.5 394.2 275.3 485.4c-21.4-51.9-67.5-108.4-129.9-144.7z" />
				<path id="&lt;Path&gt;" class="s4" d="m517.1 10.7c-231.1 95.1-191.2 425.8-188.5 451.4c-22.5-76.5-60.6-156.2-121.5-212c27.5-123.3 150.8-248.7 310-239.4z" />
				<path id="&lt;Path&gt;" class="s5" d="m550.4 542.7c74.2-45.2 105.3-110.5 99.4-182.8c-8.5-114.6-100.7-193.1-239-152.6c116.2-95.8 248.9-39.9 338.3 73.2c39.6 167.5-103.1 270.5-198.7 262.2z" />
			</g>
		</g>
	</g>
</svg>